<svg width="174" height="42" viewBox="0 0 174 42" fill="none" xmlns="http://www.w3.org/2000/svg">
<path d="M19.9292 13.2555C20.3976 13.7299 20.3976 14.4964 19.9292 14.9708C19.4608 15.4453 18.7005 15.4453 18.2321 14.9708C17.7638 14.4964 17.7638 13.7299 18.2321 13.2555C18.7005 12.781 19.4608 12.781 19.9292 13.2555Z" fill="#10182A"/>
<path d="M26.9732 20.3845C27.4415 20.859 27.4415 21.6254 26.9732 22.0998C26.5048 22.5743 25.7444 22.5743 25.2761 22.0998C24.8077 21.6254 24.8077 20.859 25.2761 20.3845C25.7444 19.9101 26.5048 19.9101 26.9732 20.3845Z" fill="#10182A"/>
<path d="M29.7106 20.591C30.0452 20.9317 30.0452 21.4791 29.7106 21.8137C29.3761 22.1543 28.8347 22.1543 28.4941 21.8137C28.1595 21.473 28.1595 20.9256 28.4941 20.591C28.8286 20.2504 29.37 20.2504 29.7106 20.591Z" fill="#10182A"/>
<path d="M19.6862 30.7796C20.0207 31.1203 20.0207 31.6677 19.6862 32.0023C19.3517 32.3429 18.8103 32.3429 18.4697 32.0023C18.1351 31.6616 18.1351 31.1142 18.4697 30.7796C18.8042 30.439 19.3456 30.439 19.6862 30.7796Z" fill="#10182A"/>
<path d="M19.5275 33.2188C19.7951 33.4864 19.7951 33.9305 19.5275 34.1981C19.2598 34.4657 18.8219 34.4657 18.5542 34.1981C18.2866 33.9305 18.2866 33.4864 18.5542 33.2188C18.8219 32.9512 19.2598 32.9512 19.5275 33.2188Z" fill="#10182A"/>
<path d="M19.5275 8.20073C19.7951 8.46837 19.7951 8.91241 19.5275 9.18004C19.2598 9.44768 18.8219 9.44768 18.5542 9.18004C18.2866 8.91241 18.2866 8.46837 18.5542 8.20073C18.8219 7.93309 19.2598 7.93309 19.5275 8.20073Z" fill="#10182A"/>
<path d="M7.17396 20.7129C7.4416 20.9806 7.4416 21.4246 7.17396 21.6923C6.90632 21.9599 6.46837 21.9599 6.20073 21.6923C5.93309 21.4246 5.93309 20.9806 6.20073 20.7129C6.46837 20.4453 6.90632 20.4453 7.17396 20.7129Z" fill="#10182A"/>
<path d="M31.924 20.7129C32.1916 20.9806 32.1916 21.4246 31.924 21.6923C31.6563 21.9599 31.2184 21.9599 30.9507 21.6923C30.6831 21.4246 30.6831 20.9806 30.9507 20.7129C31.2184 20.4453 31.6563 20.4453 31.924 20.7129Z" fill="#10182A"/>
<path d="M19.6862 10.4758C20.0207 10.8164 20.0207 11.3639 19.6862 11.6984C19.3517 12.0391 18.8103 12.0391 18.4697 11.6984C18.1351 11.3578 18.1351 10.8104 18.4697 10.4758C18.8042 10.1352 19.3456 10.1352 19.6862 10.4758Z" fill="#10182A"/>
<path d="M9.59538 20.591C9.92993 20.9317 9.92993 21.4791 9.59538 21.8137C9.26083 22.1543 8.71947 22.1543 8.37884 21.8137C8.04429 21.473 8.04429 20.9256 8.37884 20.591C8.71339 20.2504 9.25475 20.2504 9.59538 20.591Z" fill="#10182A"/>
<path d="M12.8677 20.3845C13.3361 20.859 13.3361 21.6254 12.8677 22.0998C12.3993 22.5743 11.639 22.5743 11.1706 22.0998C10.7022 21.6254 10.7022 20.859 11.1706 20.3845C11.639 19.9101 12.3993 19.9101 12.8677 20.3845Z" fill="#10182A"/>
<path d="M19.9058 27.5254C20.3741 27.9998 20.3741 28.7663 19.9058 29.2407C19.4374 29.7152 18.6771 29.7152 18.2087 29.2407C17.7403 28.7663 17.7403 27.9998 18.2087 27.5254C18.6771 27.0509 19.4374 27.0509 19.9058 27.5254Z" fill="#10182A"/>
<path d="M24.0718 14.9708C24.7349 14.9708 25.2701 15.5182 25.264 16.1812V16.2055C25.264 16.8686 24.7166 17.4038 24.0536 17.3978C23.3906 17.3978 22.8553 16.8503 22.8614 16.1873V16.163C22.8614 15.4999 23.4088 14.9647 24.0718 14.9708Z" fill="#10182A"/>
<path d="M14.0718 14.9949C14.7349 14.9949 15.2701 15.5424 15.264 16.2054V16.2297C15.264 16.8927 14.7166 17.428 14.0536 17.4219C13.3906 17.4219 12.8553 16.8745 12.8614 16.2115V16.1871C12.8614 15.5241 13.4088 14.9888 14.0718 14.9949Z" fill="#10182A"/>
<path d="M24.0953 25.0439C24.7583 25.0439 25.2936 25.5913 25.2875 26.2543V26.2787C25.2875 26.9417 24.74 27.477 24.077 27.4709C23.414 27.4709 22.8787 26.9234 22.8848 26.2604V26.2361C22.8848 25.5731 23.4323 25.0378 24.0953 25.0439Z" fill="#10182A"/>
<path d="M26.2183 27.5377C26.6928 27.5377 27.076 27.927 27.0699 28.4014V28.4197C27.0699 28.8941 26.6806 29.2773 26.2061 29.2712C25.7317 29.2712 25.3485 28.8819 25.3546 28.4075V28.3892C25.3546 27.9148 25.7439 27.5316 26.2183 27.5377Z" fill="#10182A"/>
<path d="M11.9732 27.5377C12.4476 27.5377 12.8309 27.927 12.8248 28.4014V28.4197C12.8248 28.8941 12.4355 29.2773 11.961 29.2712C11.4866 29.2712 11.1034 28.8819 11.1094 28.4075V28.3892C11.1094 27.9148 11.4987 27.5316 11.9732 27.5377Z" fill="#10182A"/>
<path d="M10.2882 29.3686C10.6654 29.3686 10.9756 29.6788 10.9695 30.062V30.0742C10.9695 30.4513 10.6593 30.7616 10.2761 30.7555C9.89895 30.7555 9.58873 30.4453 9.59481 30.062V30.0499C9.59481 29.6728 9.90503 29.3625 10.2882 29.3686Z" fill="#10182A"/>
<path d="M27.8312 11.6678C28.2083 11.6678 28.5186 11.978 28.5125 12.3612V12.3734C28.5125 12.7505 28.2023 13.0608 27.819 13.0547C27.4419 13.0547 27.1317 12.7445 27.1378 12.3612V12.3491C27.1378 11.9719 27.448 11.6617 27.8312 11.6678Z" fill="#10182A"/>
<path d="M10.3254 11.7043C10.7025 11.7043 11.0127 12.0145 11.0066 12.3977V12.4099C11.0066 12.787 10.6964 13.0972 10.3132 13.0912C9.93606 13.0912 9.62584 12.7809 9.63192 12.3977V12.3856C9.63192 12.0084 9.94214 11.6982 10.3254 11.7043Z" fill="#10182A"/>
<path d="M27.8312 29.4051C28.2083 29.4051 28.5186 29.7153 28.5125 30.0985V30.1107C28.5125 30.4878 28.2023 30.7981 27.819 30.792C27.4419 30.792 27.1317 30.4818 27.1378 30.0985V30.0864C27.1378 29.7093 27.448 29.399 27.8312 29.4051Z" fill="#10182A"/>
<path d="M11.9371 13.1582C12.4115 13.1582 12.7947 13.5474 12.7886 14.0219V14.0401C12.7886 14.5146 12.3993 14.8978 11.9249 14.8917C11.4504 14.8917 11.0672 14.5024 11.0733 14.028V14.0097C11.0733 13.5353 11.4626 13.1521 11.9371 13.1582Z" fill="#10182A"/>
<path d="M26.188 13.1582C26.6625 13.1582 27.0457 13.5474 27.0396 14.0219V14.0401C27.0396 14.5146 26.6503 14.8978 26.1759 14.8917C25.7014 14.8917 25.3182 14.5024 25.3243 14.028V14.0097C25.3243 13.5353 25.7136 13.1521 26.188 13.1582Z" fill="#10182A"/>
<path d="M14.0718 25.0439C14.7349 25.0439 15.2701 25.5913 15.264 26.2543V26.2787C15.264 26.9417 14.7166 27.477 14.0536 27.4709C13.3906 27.4709 12.8553 26.9234 12.8614 26.2604V26.2361C12.8614 25.5731 13.4088 25.0378 14.0718 25.0439Z" fill="#10182A"/>
<path d="M12.7215 19.32C13.1011 19.32 13.4089 19.0095 13.4089 18.6265C13.4089 18.2436 13.1011 17.9331 12.7215 17.9331C12.3419 17.9331 12.0342 18.2436 12.0342 18.6265C12.0342 19.0095 12.3419 19.32 12.7215 19.32Z" fill="#10182A"/>
<path d="M10.592 18.59C11.0657 18.59 11.4497 18.2033 11.4497 17.7263C11.4497 17.2493 11.0657 16.8625 10.592 16.8625C10.1184 16.8625 9.73438 17.2493 9.73438 17.7263C9.73438 18.2033 10.1184 18.59 10.592 18.59Z" fill="#10182A"/>
<path d="M10.592 25.7249C11.0657 25.7249 11.4497 25.3382 11.4497 24.8612C11.4497 24.3841 11.0657 23.9974 10.592 23.9974C10.1184 23.9974 9.73438 24.3841 9.73438 24.8612C9.73438 25.3382 10.1184 25.7249 10.592 25.7249Z" fill="#10182A"/>
<path d="M15.5012 30.7189C15.9749 30.7189 16.3589 30.3322 16.3589 29.8552C16.3589 29.3782 15.9749 28.9915 15.5012 28.9915C15.0275 28.9915 14.6436 29.3782 14.6436 29.8552C14.6436 30.3322 15.0275 30.7189 15.5012 30.7189Z" fill="#10182A"/>
<path d="M22.4661 30.7189C22.9397 30.7189 23.3237 30.3322 23.3237 29.8552C23.3237 29.3782 22.9397 28.9915 22.4661 28.9915C21.9924 28.9915 21.6084 29.3782 21.6084 29.8552C21.6084 30.3322 21.9924 30.7189 22.4661 30.7189Z" fill="#10182A"/>
<path d="M27.7219 25.6217C28.1956 25.6217 28.5796 25.2349 28.5796 24.7579C28.5796 24.2809 28.1956 23.8942 27.7219 23.8942C27.2482 23.8942 26.8643 24.2809 26.8643 24.7579C26.8643 25.2349 27.2482 25.6217 27.7219 25.6217Z" fill="#10182A"/>
<path d="M27.6536 18.4501C28.1272 18.4501 28.5112 18.0634 28.5112 17.5864C28.5112 17.1094 28.1272 16.7227 27.6536 16.7227C27.1799 16.7227 26.7959 17.1094 26.7959 17.5864C26.7959 18.0634 27.1799 18.4501 27.6536 18.4501Z" fill="#10182A"/>
<path d="M22.6057 13.4257C23.0794 13.4257 23.4634 13.039 23.4634 12.562C23.4634 12.085 23.0794 11.6982 22.6057 11.6982C22.132 11.6982 21.748 12.085 21.748 12.562C21.748 13.039 22.132 13.4257 22.6057 13.4257Z" fill="#10182A"/>
<path d="M15.428 13.4257C15.9016 13.4257 16.2856 13.039 16.2856 12.562C16.2856 12.085 15.9016 11.6982 15.428 11.6982C14.9543 11.6982 14.5703 12.085 14.5703 12.562C14.5703 13.039 14.9543 13.4257 15.428 13.4257Z" fill="#10182A"/>
<path d="M12.7215 24.6911C13.1011 24.6911 13.4089 24.3806 13.4089 23.9976C13.4089 23.6147 13.1011 23.3042 12.7215 23.3042C12.3419 23.3042 12.0342 23.6147 12.0342 23.9976C12.0342 24.3806 12.3419 24.6911 12.7215 24.6911Z" fill="#10182A"/>
<path d="M16.3592 28.3648C16.7388 28.3648 17.0466 28.0543 17.0466 27.6713C17.0466 27.2884 16.7388 26.9779 16.3592 26.9779C15.9796 26.9779 15.6719 27.2884 15.6719 27.6713C15.6719 28.0543 15.9796 28.3648 16.3592 28.3648Z" fill="#10182A"/>
<path d="M21.7479 28.3648C22.1275 28.3648 22.4352 28.0543 22.4352 27.6713C22.4352 27.2884 22.1275 26.9779 21.7479 26.9779C21.3683 26.9779 21.0605 27.2884 21.0605 27.6713C21.0605 28.0543 21.3683 28.3648 21.7479 28.3648Z" fill="#10182A"/>
<path d="M25.5565 24.624C25.9361 24.624 26.2438 24.3136 26.2438 23.9306C26.2438 23.5476 25.9361 23.2372 25.5565 23.2372C25.1769 23.2372 24.8691 23.5476 24.8691 23.9306C24.8691 24.3136 25.1769 24.624 25.5565 24.624Z" fill="#10182A"/>
<path d="M25.5565 19.2529C25.9361 19.2529 26.2438 18.9425 26.2438 18.5595C26.2438 18.1765 25.9361 17.8661 25.5565 17.8661C25.1769 17.8661 24.8691 18.1765 24.8691 18.5595C24.8691 18.9425 25.1769 19.2529 25.5565 19.2529Z" fill="#10182A"/>
<path d="M21.7479 15.4025C22.1275 15.4025 22.4352 15.092 22.4352 14.7091C22.4352 14.3261 22.1275 14.0156 21.7479 14.0156C21.3683 14.0156 21.0605 14.3261 21.0605 14.7091C21.0605 15.092 21.3683 15.4025 21.7479 15.4025Z" fill="#10182A"/>
<path d="M16.3221 15.4025C16.7017 15.4025 17.0095 15.092 17.0095 14.7091C17.0095 14.3261 16.7017 14.0156 16.3221 14.0156C15.9425 14.0156 15.6348 14.3261 15.6348 14.7091C15.6348 15.092 15.9425 15.4025 16.3221 15.4025Z" fill="#10182A"/>
<path d="M50.4178 31.6222L45.8555 23.6936H43.3751V31.6222H40.125V11.8062H46.9684C48.491 11.8062 49.77 12.0719 50.8165 12.6034C51.8795 13.135 52.6713 13.8492 53.1807 14.7406C53.7122 15.6321 53.978 16.6342 53.978 17.736C53.978 19.0261 53.5959 20.2054 52.8374 21.274C52.0955 22.3205 50.9438 23.0347 49.388 23.4112L54.2936 31.6222H50.4178ZM43.3751 21.0968H46.9684C48.1865 21.0968 49.0946 20.7923 49.7036 20.1833C50.3293 19.5742 50.6448 18.7603 50.6448 17.7305C50.6448 16.7006 50.3403 15.9034 49.7313 15.3331C49.1222 14.7462 48.2031 14.4472 46.9684 14.4472H43.3751V21.0913V21.0968Z" fill="#10182A"/>
<path d="M71.8795 23.3782C71.8795 23.9651 71.8408 24.5021 71.7633 24.9727H59.7596C59.8537 26.2296 60.3188 27.2373 61.1548 27.9958C61.9909 28.7544 63.0152 29.1364 64.2333 29.1364C65.9829 29.1364 67.2176 28.4055 67.9374 26.9438H71.4421C70.966 28.3889 70.1023 29.5738 68.8454 30.5095C67.6107 31.4231 66.0715 31.8771 64.2277 31.8771C62.7273 31.8771 61.3763 31.5449 60.1804 30.8805C59.001 30.1939 58.0709 29.2471 57.3843 28.029C56.7199 26.7943 56.3877 25.3659 56.3877 23.7547C56.3877 22.1435 56.7088 20.7205 57.3566 19.508C58.021 18.2733 58.9457 17.3209 60.1195 16.6565C61.3154 15.9921 62.683 15.6599 64.2222 15.6599C65.7614 15.6599 67.0238 15.981 68.1865 16.6288C69.3437 17.2766 70.2462 18.1847 70.894 19.364C71.5418 20.5212 71.8629 21.8611 71.8629 23.3837L71.8795 23.3782ZM68.4911 22.3539C68.4744 21.1579 68.0426 20.1945 67.2065 19.4747C66.3705 18.755 65.3351 18.3895 64.1004 18.3895C62.9764 18.3895 62.0186 18.7494 61.2213 19.4747C60.424 20.1779 59.9478 21.1358 59.7983 22.3539H68.4966H68.4911Z" fill="#10182A"/>
<path d="M80.4993 28.71L84.9453 15.9091H88.3947L82.4095 31.6168H78.5337L72.5762 15.9091H76.0533L80.4993 28.71Z" fill="#10182A"/>
<path d="M97.0093 31.8771C95.5255 31.8771 94.1856 31.5449 92.9896 30.8805C91.7937 30.1939 90.8525 29.2471 90.1659 28.029C89.4793 26.7943 89.1416 25.3659 89.1416 23.7547C89.1416 22.1435 89.496 20.7427 90.1991 19.508C90.9023 18.2733 91.8602 17.3209 93.0782 16.6565C94.2963 15.9921 95.6528 15.6599 97.1533 15.6599C98.6538 15.6599 100.016 15.9921 101.228 16.6565C102.446 17.3209 103.404 18.2733 104.107 19.508C104.811 20.7427 105.165 22.1601 105.165 23.7547C105.165 25.3492 104.805 26.7667 104.08 28.0014C103.36 29.236 102.369 30.1939 101.112 30.8805C99.8774 31.5449 98.5098 31.8771 97.0093 31.8771ZM97.0093 29.0533C97.8454 29.0533 98.6261 28.854 99.3459 28.4554C100.088 28.0567 100.686 27.4587 101.14 26.6615C101.594 25.8642 101.826 24.8952 101.826 23.7547C101.826 22.6141 101.61 21.6562 101.173 20.8755C100.736 20.0782 100.154 19.4803 99.4344 19.0816C98.7147 18.683 97.934 18.4837 97.0979 18.4837C96.2619 18.4837 95.4812 18.683 94.7614 19.0816C94.0582 19.4803 93.499 20.0782 93.0782 20.8755C92.6574 21.6562 92.4526 22.6141 92.4526 23.7547C92.4526 25.4489 92.8789 26.7556 93.7371 27.6913C94.6119 28.6049 95.7027 29.0589 97.0149 29.0589L97.0093 29.0533Z" fill="#10182A"/>
<path d="M110.969 10.5217V31.6168H107.719V10.5217H110.969Z" fill="#10182A"/>
<path d="M118.376 18.5612V27.2595C118.376 27.8464 118.509 28.2782 118.775 28.544C119.057 28.7932 119.534 28.915 120.198 28.915H122.191V31.6224H119.628C118.166 31.6224 117.042 31.2792 116.261 30.5981C115.481 29.9116 115.093 28.8042 115.093 27.265V18.5668H113.238V15.9146H115.093V12.0112H118.371V15.9146H122.191V18.5668H118.371L118.376 18.5612Z" fill="#10182A"/>
<path d="M161.189 32.0961C157.733 32.0961 155.071 29.5975 155.071 26.0481C155.071 22.522 157.757 20 161.189 20C164.622 20 167.308 22.522 167.308 26.0481C167.308 29.5975 164.622 32.0961 161.189 32.0961ZM157.78 26.0481C157.78 28.1263 159.205 29.6442 161.189 29.6442C163.151 29.6442 164.599 28.1263 164.599 26.0481C164.599 23.9698 163.151 22.4519 161.189 22.4519C159.205 22.4519 157.78 23.9698 157.78 26.0481Z" fill="#10182A"/>
<path d="M148.448 32.0961C144.968 32.0961 142.446 29.5975 142.446 26.0714C142.446 22.522 144.992 20 148.448 20C151.203 20 153.281 21.5879 153.795 23.6195L151.367 24.2733C151.063 23.3393 150.012 22.4519 148.494 22.4519C146.58 22.4519 145.155 23.853 145.155 26.0714C145.155 28.2665 146.58 29.6442 148.494 29.6442C150.012 29.6442 151.063 28.7568 151.367 27.8461L153.795 28.5C153.281 30.5082 151.203 32.0961 148.448 32.0961Z" fill="#10182A"/>
<path d="M135.325 32.0961C131.869 32.0961 129.207 29.5975 129.207 26.0481C129.207 22.4986 131.822 20 135.208 20C138.548 20 140.93 22.2651 140.93 25.7211C140.93 26.1415 140.883 26.5851 140.859 26.7953H131.939C132.126 28.5934 133.504 29.8077 135.325 29.8077C136.82 29.8077 137.894 28.967 138.267 28.0096L140.696 28.6634C140.089 30.6016 138.034 32.0961 135.325 32.0961ZM132.033 24.8104H138.314C138.127 23.2459 136.82 22.3118 135.232 22.3118C133.667 22.3118 132.406 23.2225 132.033 24.8104Z" fill="#10182A"/>
<path d="M126.728 31.9559C125.747 31.9559 125 31.1853 125 30.2279C125 29.2938 125.747 28.4999 126.728 28.4999C127.709 28.4999 128.456 29.2938 128.456 30.2279C128.456 31.1853 127.709 31.9559 126.728 31.9559Z" fill="#10182A"/>
</svg>
